#!OML:ASF C:\Vicon Data\Big\jianyuan-13\jianyuan\Session 1\Capture.male.ASF
:FULLY-SPECIFIED
:DEGREES
112
root -8.185984 16.900341 -12.608860 2.218721 3.149126 1.254819
lowerback -12.725326 2.707261 -1.513675 
upperback 1.814408 3.923496 -0.613111 
thorax 9.038697 1.838448 0.992405 
lowerneck -1.577670 -1.465309 4.343464 
upperneck 14.967802 -2.595435 -3.342945 
head 4.642885 -1.549273 -1.890050 
rclavicle 0.000000 0.000000 
rhumerus -28.422202 -4.052662 -89.137845 
rradius 50.536502 
rwrist 16.670560 
rhand -18.643322 -18.205034 
rfingers 0.000000 
rthumb 7.649454 -48.046674 
lclavicle 0.000000 0.000000 
lhumerus -51.066353 32.065680 59.954357 
lradius 26.654329 
lwrist -55.583332 
lhand -19.065159 0.493899 
lfingers 0.000000 
lthumb 7.242236 30.349983 
rfemur 6.372400 6.450910 25.611266 
rtibia 27.362432 
rfoot -23.125585 -0.455318 
rtoes -27.508011 
lfemur -45.531083 0.000409 -17.009477 
ltibia 32.791970 
lfoot -15.659005 3.909674 
ltoes -36.323018 
113
root -8.152574 16.881406 -12.476678 2.520284 2.908291 1.098464
lowerback -12.786606 2.752251 -1.450168 
upperback 1.780281 3.973589 -0.607031 
thorax 9.039600 1.865743 0.975690 
lowerneck -1.562644 -1.462429 4.312783 
upperneck 14.958528 -2.611155 -3.186229 
head 4.640223 -1.549926 -1.836910 
rclavicle 0.000000 0.000000 
rhumerus -28.395642 -4.029326 -89.168296 
rradius 50.623317 
rwrist 16.668891 
rhand -18.597485 -18.234917 
rfingers 0.000000 
rthumb 7.693687 -48.074978 
lclavicle 0.000000 0.000000 
lhumerus -51.222893 31.990162 59.899237 
lradius 26.609006 
lwrist -55.667832 
lhand -19.019506 0.521237 
lfingers 0.000000 
lthumb 7.286355 30.375806 
rfemur 6.521654 6.549711 25.619508 
rtibia 27.341141 
rfoot -22.914433 -0.216457 
rtoes -27.895309 
lfemur -45.041112 0.145112 -17.015859 
ltibia 31.889294 
lfoot -15.522293 4.224668 
ltoes -37.562651 
114
root -8.120118 16.861203 -12.343441 2.931405 2.743011 0.939310
lowerback -12.970639 2.758962 -1.444854 
upperback 1.739630 3.983448 -0.587087 
thorax 9.100035 1.869134 1.004958 
lowerneck -1.555188 -1.449506 4.439415 
upperneck 14.924818 -2.591726 -3.242666 
head 4.626996 -1.535965 -1.873711 
rclavicle 0.000000 0.000000 
rhumerus -28.319246 -3.992365 -89.218267 
rradius 50.704908 
rwrist 16.549979 
rhand -18.600071 -18.198208 
rfingers 0.000000 
rthumb 7.691160 -48.038331 
lclavicle 0.000000 0.000000 
lhumerus -51.404051 31.964577 59.822950 
lradius 26.555407 
lwrist -55.745704 
lhand -19.020890 0.673569 
lfingers 0.000000 
lthumb 7.285027 30.528164 
rfemur 6.582116 6.465099 25.581159 
rtibia 27.261982 
rfoot -22.747766 0.103693 
rtoes -27.997367 
lfemur -44.710554 0.039673 -16.811306 
ltibia 31.061246 
lfoot -15.481570 4.262725 
ltoes -37.679440 
115
root -8.087598 16.841350 -12.206861 3.333463 2.567462 0.796686
lowerback -13.091278 2.745271 -1.471464 
upperback 1.714120 3.971636 -0.582364 
thorax 9.139816 1.861320 1.028424 
lowerneck -1.562485 -1.438645 4.564309 
upperneck 14.850245 -2.575580 -3.264502 
head 4.604261 -1.520153 -1.899093 
rclavicle 0.000000 0.000000 
rhumerus -28.236312 -3.928026 -89.303935 
rradius 50.769731 
rwrist 16.732109 
rhand -18.536919 -18.252026 
rfingers 0.000000 
rthumb 7.752118 -48.089897 
lclavicle 0.000000 0.000000 
lhumerus -51.460380 31.314789 60.365120 
lradius 27.050228 
lwrist -54.952348 
lhand -18.651827 0.859591 
lfingers 0.000000 
lthumb 7.641252 30.701568 
rfemur 6.661866 6.652939 25.609859 
rtibia 27.247004 
rfoot -22.671946 0.213896 
rtoes -28.268261 
lfemur -44.358362 -0.040858 -16.657841 
ltibia 30.255820 
lfoot -15.526267 4.336730 
ltoes -36.601250 
116
root -8.051246 16.820300 -12.066693 3.711839 2.432009 0.644741
lowerback -13.142195 2.707718 -1.482728 
upperback 1.682294 3.917638 -0.518159 
thorax 9.130010 1.832879 1.093921 
lowerneck -1.531453 -1.409925 4.506154 
upperneck 14.806189 -2.526714 -3.294316 
head 4.587504 -1.500371 -1.895549 
rclavicle 0.000000 0.000000 
rhumerus -28.153534 -3.888403 -89.303028 
rradius 50.809643 
rwrist 16.738513 
rhand -18.467777 -18.198204 
rfingers 0.000000 
rthumb 7.818834 -48.033661 
lclavicle 0.000000 0.000000 
lhumerus -51.766032 31.623948 60.076160 
lradius 26.838805 
lwrist -55.184696 
lhand -18.718635 0.762602 
lfingers 0.000000 
lthumb 7.576721 30.606850 
rfemur 6.718165 6.533575 25.535472 
rtibia 27.313118 
rfoot -22.496514 0.612954 
rtoes -28.392121 
lfemur -43.952179 -0.106931 -16.607944 
ltibia 29.482537 
lfoot -15.465096 4.658301 
ltoes -38.678212 
117
root -8.022089 16.802524 -11.925388 4.218463 1.910232 0.467851
lowerback -13.280446 2.844808 -1.481164 
upperback 1.613258 4.103444 -0.522357 
thorax 9.130417 1.923183 1.132295 
lowerneck -1.569335 -1.418389 4.458958 
upperneck 14.801810 -2.551835 -3.166937 
head 4.594361 -1.507154 -1.849850 
rclavicle 0.000000 0.000000 
rhumerus -28.146664 -3.836799 -89.393903 
rradius 50.957431 
rwrist 16.536266 
rhand -18.495211 -18.263539 
rfingers 0.000000 
rthumb 7.792356 -48.099990 
lclavicle 0.000000 0.000000 
lhumerus -51.978449 31.830537 59.756222 
lradius 26.640982 
lwrist -55.485713 
lhand -18.864092 0.603397 
lfingers 0.000000 
lthumb 7.436338 30.452730 
rfemur 6.642046 6.844768 25.474765 
rtibia 27.333268 
rfoot -22.246337 0.945187 
rtoes -28.297889 
lfemur -43.691928 0.035582 -16.323810 
ltibia 28.793982 
lfoot -15.841048 4.565956 
ltoes -35.747143 
118
root -7.981155 16.776264 -11.780880 4.562789 1.947109 0.336814
lowerback -13.259774 2.786002 -1.481992 
upperback 1.631371 4.025537 -0.531472 
thorax 9.140735 1.885489 1.106421 
lowerneck -1.515475 -1.433953 4.460042 
upperneck 14.616024 -2.567739 -3.081177 
head 4.529302 -1.504910 -1.820089 
rclavicle 0.000000 0.000000 
rhumerus -28.067577 -3.865143 -89.475242 
rradius 51.054396 
rwrist 16.566147 
rhand -18.471469 -18.306460 
rfingers 0.000000 
rthumb 7.815311 -48.142055 
lclavicle 0.000000 0.000000 
lhumerus -52.127190 31.905206 59.603453 
lradius 26.586838 
lwrist -55.648534 
lhand -18.880312 0.525189 
lfingers 0.000000 
lthumb 7.420645 30.375073 
rfemur 6.844681 6.866168 25.478870 
rtibia 27.278707 
rfoot -22.075218 1.095358 
rtoes -28.128168 
lfemur -43.323305 -0.038798 -16.399881 
ltibia 28.130304 
lfoot -15.740041 4.742747 
ltoes -38.162933 
119
root -7.941087 16.755541 -11.631879 4.934914 1.871118 0.218215
lowerback -13.268207 2.778649 -1.532706 
upperback 1.667038 4.025062 -0.538805 
thorax 9.181655 1.881697 1.128522 
lowerneck -1.547923 -1.471858 4.640941 
upperneck 14.496740 -2.598737 -3.230953 
head 4.492255 -1.514184 -1.895397 
rclavicle 0.000000 0.000000 
rhumerus -27.993435 -3.888866 -89.535571 
rradius 51.180162 
rwrist 16.361814 
rhand -18.373129 -18.316088 
rfingers 0.000000 
rthumb 7.910247 -48.148091 
lclavicle 0.000000 0.000000 
lhumerus -52.222373 31.941624 59.547848 
lradius 26.584514 
lwrist -55.710511 
lhand -18.877755 0.482112 
lfingers 0.000000 
lthumb 7.423191 30.331904 
rfemur 6.999245 6.722257 25.354726 
rtibia 27.173917 
rfoot -21.715536 1.458377 
rtoes -28.359306 
lfemur -42.911446 -0.036177 -16.449745 
ltibia 27.434396 
lfoot -15.758732 4.772508 
ltoes -37.991065 
120
root -7.896377 16.729618 -11.477189 5.308599 1.746343 0.132090
lowerback -13.307790 2.837389 -1.507491 
upperback 1.743786 4.106096 -0.594585 
thorax 9.292697 1.920890 1.076490 
lowerneck -1.634857 -1.504537 4.601369 
upperneck 14.356470 -2.643705 -3.084049 
head 4.465180 -1.523178 -1.843782 
rclavicle 0.000000 0.000000 
rhumerus -27.937224 -3.875868 -89.619330 
rradius 51.308672 
rwrist 16.109282 
rhand -18.843599 -18.382875 
rfingers 0.000000 
rthumb 7.456116 -48.231399 
lclavicle 0.000000 0.000000 
lhumerus -52.083718 31.834747 59.713587 
lradius 26.541817 
lwrist -55.485426 
lhand -18.889983 0.425382 
lfingers 0.000000 
lthumb 7.411342 30.275543 
rfemur 7.189679 6.807445 25.248043 
rtibia 27.118558 
rfoot -21.486734 1.656994 
rtoes -28.399405 
lfemur -42.474136 -0.082125 -16.472477 
ltibia 26.753685 
lfoot -15.883553 4.620462 
ltoes -36.513014 
